<svg width="512" height="512" viewBox="0 0 512 512" fill="none" xmlns="http://www.w3.org/2000/svg">
<rect y="107" width="512" height="298" rx="56" fill="white"/>
<path d="M68.02 337.69C66.4867 337.69 65.26 337.537 64.34 337.23H59.74H55.6H53.99L43.64 334.7L42.72 332.86C42.5667 332.86 42.49 332.017 42.49 330.33C42.49 328.183 42.4133 326.42 42.26 325.04L42.03 314.46C41.8767 312.16 41.8 308.71 41.8 304.11L41.34 286.4C41.34 282.567 41.4933 277.277 41.8 270.53L42.03 262.71C42.3367 257.803 42.49 249.753 42.49 238.56V236.95V233.96C42.1833 233.5 42.03 232.657 42.03 231.43L41.8 229.82C41.8 225.987 42.03 222 42.49 217.86C42.7967 212.647 42.95 207.893 42.95 203.6L42.72 197.16C42.5667 195.473 42.49 193.48 42.49 191.18C42.49 191.027 42.3367 190.797 42.03 190.49C41.8767 190.183 41.8 189.877 41.8 189.57C41.8 188.037 42.4133 186.733 43.64 185.66C44.8667 184.587 46.4 183.82 48.24 183.36C50.6933 182.593 53.8367 182.21 57.67 182.21H96.54H114.48C114.633 182.21 114.863 182.363 115.17 182.67C115.477 182.977 115.783 183.207 116.09 183.36C117.317 184.433 118.85 186.503 120.69 189.57C121.15 190.49 121.61 191.563 122.07 192.79C122.683 193.863 123.45 195.627 124.37 198.08C125.443 200.533 126.9 204.29 128.74 209.35L131.5 216.48C132.727 218.78 134.107 222.077 135.64 226.37C136.1 227.597 136.56 228.823 137.02 230.05C137.633 231.277 138.17 232.503 138.63 233.73C138.937 234.803 139.243 235.647 139.55 236.26C140.01 236.72 140.24 237.027 140.24 237.18C141.313 239.633 142.463 240.86 143.69 240.86C145.223 240.86 146.45 239.633 147.37 237.18C147.523 237.027 147.677 236.72 147.83 236.26C147.983 235.647 148.367 234.727 148.98 233.5L152.43 225.91L161.63 206.36L165.54 198.08C166 196.853 166.307 195.857 166.46 195.09C166.767 194.17 167.073 193.557 167.38 193.25C167.993 191.87 169.45 189.493 171.75 186.12C172.517 184.893 173.207 183.973 173.82 183.36C174.28 183.207 174.587 182.977 174.74 182.67C174.893 182.363 175.123 182.21 175.43 182.21H193.37H232.24H235.69H237.99H240.98H246.04C246.347 182.21 246.73 183.36 247.19 185.66L247.88 208.2C248.187 214.64 248.34 224.76 248.34 238.56V251.9C248.34 257.113 248.11 262.94 247.65 269.38C247.19 275.82 246.883 279.96 246.73 281.8L246.27 286.4V294.45C246.423 296.597 246.5 299.817 246.5 304.11C246.5 308.71 246.577 312.16 246.73 314.46C246.73 318.907 246.883 321.973 247.19 323.66V330.33V332.86L246.5 334.7L236.15 337.23H234.54H230.4H225.8C224.727 337.537 223.423 337.69 221.89 337.69C219.13 337.69 215.297 337.537 210.39 337.23L204.64 337C203.567 336.847 202.34 336.693 200.96 336.54C199.58 336.387 197.893 336.31 195.9 336.31L186.93 335.62C186.623 335.62 186.393 335.697 186.24 335.85H184.4C183.633 335.85 183.173 335.007 183.02 333.32C182.1 330.253 181.64 325.04 181.64 317.68C181.64 312.773 181.563 308.94 181.41 306.18L181.18 293.76C181.027 291 180.95 287.013 180.95 281.8C180.95 280.573 180.413 279.96 179.34 279.96C178.727 279.96 178.113 280.727 177.5 282.26L174.97 288.47L172.9 294.22C172.593 295.14 172.287 296.06 171.98 296.98C171.673 297.9 171.29 298.743 170.83 299.51L169.68 302.27C168.3 305.337 166.537 308.787 164.39 312.62C162.09 316.76 159.253 320.057 155.88 322.51C154.04 323.583 152.43 324.12 151.05 324.12H147.6C145.76 324.12 144.227 323.967 143 323.66H137.94H133.34C127.207 313.847 121.457 303.113 116.09 291.46L112.64 282.95C111.72 280.957 111.107 279.96 110.8 279.96C109.727 279.96 109.19 280.573 109.19 281.8V292.61C109.19 303.343 109.037 311.24 108.73 316.3C108.423 324.273 107.887 329.793 107.12 332.86C106.967 334.853 106.507 335.85 105.74 335.85H104.13L102.98 335.62C97.7667 335.927 93.6267 336.233 90.56 336.54C88.72 336.693 85.5 336.923 80.9 337.23C76.3 337.537 72.0067 337.69 68.02 337.69ZM411.516 337C395.876 337 384.453 336.923 377.246 336.77C370.346 336.77 365.133 336.693 361.606 336.54L343.206 336.31C341.673 336.31 340.293 335.697 339.066 334.47C337.686 333.09 336.996 331.787 336.996 330.56V288.01C347.269 278.35 355.549 269.917 361.836 262.71C365.669 259.183 369.273 255.427 372.646 251.44C376.173 247.453 378.319 245 379.086 244.08C382.153 240.4 383.993 237.947 384.606 236.72C386.139 234.727 386.906 233.27 386.906 232.35C386.906 231.737 386.523 231.43 385.756 231.43L342.056 230.51C339.449 230.51 337.303 228.747 335.616 225.22C334.849 223.073 334.159 219.087 333.546 213.26C333.239 210.807 333.086 207.28 333.086 202.68C333.086 201.3 333.163 200.073 333.316 199C333.316 196.7 333.393 194.937 333.546 193.71C333.546 191.257 333.699 189.57 334.006 188.65V186.35L335.156 185.2C336.383 183.973 337.916 183.36 339.756 183.36C340.829 183.36 341.749 183.513 342.516 183.82L345.046 184.05C350.566 184.05 356.239 183.82 362.066 183.36C367.586 182.9 373.183 182.67 378.856 182.67C393.423 182.67 404.309 182.517 411.516 182.21L444.866 181.98C453.453 181.98 460.046 182.44 464.646 183.36C466.639 184.127 467.943 184.74 468.556 185.2C469.016 186.12 469.246 186.657 469.246 186.81V223.61C469.246 224.99 468.709 227.443 467.636 230.97C466.409 234.19 464.109 238.253 460.736 243.16C453.989 253.587 440.573 269.303 420.486 290.31C427.233 290.31 432.216 290.233 435.436 290.08H449.006H462.116C463.496 290.08 464.799 290.617 466.026 291.69C467.253 292.61 467.866 293.607 467.866 294.68V331.71V332.4C467.866 333.473 467.329 334.393 466.256 335.16C464.876 335.773 463.189 336.157 461.196 336.31C459.356 336.77 456.213 337 451.766 337H411.516Z" fill="black"/>
</svg>
